<svg class="h-6 w-6"  viewBox="0 0 49 49" xmlns="http://www.w3.org/2000/svg" fill="none">

  <path id="svg_1" fill="#29296E" d="m48.0126,24.0059c0,13.2583 -10.7477,24.006 -24.006,24.006c-13.2582,0 -24.0066,-10.7477 -24.0066,-24.006c0,-13.2582 10.7484,-24.0059 24.0066,-24.0059c13.2583,0 24.006,10.7477 24.006,24.0059z" clip-rule="evenodd" fill-rule="evenodd"/>
  <path id="svg_2" fill="#FAFAFA" d="m35.1775,17.5873l-0.6104,-1.886c-0.1241,-0.3835 -0.4268,-0.682 -0.8118,-0.7997l-1.8952,-0.5828c-0.2623,-0.0801 -0.2644,-0.4502 -0.0042,-0.5346l1.8866,-0.6104c0.3829,-0.1241 0.6814,-0.4269 0.7998,-0.8118l0.5821,-1.8952c0.0801,-0.2616 0.4502,-0.2645 0.5345,-0.0035l0.6105,1.8859c0.1241,0.3828 0.4268,0.6813 0.8118,0.7997l1.8951,0.5821c0.2624,0.0809 0.2652,0.4502 0.0043,0.5346l-1.8867,0.6105c-0.3828,0.124 -0.6813,0.4275 -0.7997,0.8125l-0.5821,1.8944c-0.0801,0.2623 -0.4502,0.2652 -0.5346,0.0043z" clip-rule="evenodd" fill-rule="evenodd"/>
  <path id="svg_3" fill="#FF4F0A" d="m2.18311,23.6256c0.57074,-1.1181 1.69946,-1.9604 2.87214,-2.4929c1.18474,-0.5268 2.48716,-0.8501 3.76619,-0.955c2.58216,-0.2332 5.09766,0.1985 7.38916,0.9451c1.1805,0.3517 2.2369,0.8402 3.328,1.3336c0.5304,0.2553 1.0288,0.5445 1.5421,0.8239l1.418,0.8217c1.557,0.9543 3.0664,1.7994 4.4844,2.456c1.4216,0.6508 2.7063,1.0911 3.9172,1.3159c1.211,0.2276 2.4418,0.2247 3.9555,-0.1227c1.5017,-0.3396 3.1912,-1.072 4.9573,-2.0114c1.7768,-0.9401 3.5989,-2.093 5.6777,-3.2196c-0.2085,2.3546 -0.8749,4.5624 -1.9157,6.6944c-1.0664,2.1064 -2.5496,4.1611 -4.712,5.8251c-2.1214,1.6775 -5.0346,2.8466 -8.0004,3.0225c-2.9671,0.2006 -5.7896,-0.4531 -8.191,-1.4365c-2.4106,-0.9975 -4.4936,-2.3085 -6.3398,-3.7555c-0.5098,-0.3999 -0.7835,-0.6268 -1.16,-0.9451l-1.0514,-0.921c-0.7083,-0.5544 -1.3946,-1.2173 -2.0958,-1.7668c-1.3989,-1.1692 -2.78282,-2.3404 -4.30007,-3.3557c-0.76501,-0.5162 -1.55413,-0.9947 -2.44888,-1.4187c-0.44454,-0.2049 -0.91673,-0.3956 -1.42367,-0.5459c-0.51898,-0.1695 -1.04648,-0.2702 -1.66897,-0.2914z" clip-rule="evenodd" fill-rule="evenodd"/>
  <path id="svg_4" fill="#FAFAFA" d="m2.18311,23.6256c0.29139,-2.4226 1.42083,-4.695 3.2309,-6.6291c1.80085,-1.9157 4.61419,-3.3926 7.73589,-3.5883c1.5406,-0.1028 3.1047,0.0688 4.5425,0.4673c1.4315,0.397 2.7729,0.9755 3.9817,1.6569c0.6041,0.3424 1.1692,0.7168 1.7321,1.0947l1.5003,1.1358l2.3418,1.8476c1.5201,1.2103 2.9707,2.3298 4.3114,3.2543c1.3535,0.926 2.5063,1.6024 3.6074,1.9987c1.0911,0.4325 2.4694,0.5431 4.2915,0.0851c0.9047,-0.2085 1.8484,-0.5892 2.8552,-1.0018c1.0011,-0.4226 2.0404,-0.9267 3.177,-1.4265c-0.1369,1.218 -0.3843,2.4311 -0.8544,3.5648c-0.4516,1.1493 -1.0464,2.2738 -1.8781,3.3224c-0.4254,0.5104 -0.8813,1.0238 -1.413,1.4974c-0.5318,0.4622 -1.121,0.9011 -1.7718,1.2861c-1.2982,0.7522 -2.8381,1.3017 -4.4178,1.4974c-1.5796,0.1985 -3.1657,0.0992 -4.6099,-0.207c-1.452,-0.2978 -2.775,-0.7778 -3.9895,-1.3322c-2.4205,-1.1259 -4.4454,-2.5411 -6.2356,-4.0392c-0.899,-0.748 -1.742,-1.5293 -2.5404,-2.3227l-0.9429,-0.9465c-0.2843,-0.2744 -0.5715,-0.5502 -0.8558,-0.8026c-1.1457,-1.0131 -2.2092,-1.7874 -3.3805,-2.2702c-1.1627,-0.5055 -2.65093,-0.7132 -4.4766,-0.3715c-1.81858,0.3382 -3.81369,1.1245 -5.94139,2.2291z" clip-rule="evenodd" fill-rule="evenodd"/>
  <path id="svg_5" fill="#FAFAFA" d="m11.7773,36.1186c0,0.7168 -0.5813,1.2982 -1.2981,1.2982c-0.71683,0 -1.2975,-0.5814 -1.2975,-1.2982c0,-0.7168 0.58067,-1.2982 1.2975,-1.2982c0.7168,0 1.2981,0.5814 1.2981,1.2982z" clip-rule="evenodd" fill-rule="evenodd"/>
  <path id="svg_6" fill="#FAFAFA" d="m11.7773,36.1186c0,0.7168 -0.5813,1.2982 -1.2981,1.2982c-0.71683,0 -1.2975,-0.5814 -1.2975,-1.2982c0,-0.7168 0.58067,-1.2982 1.2975,-1.2982c0.7168,0 1.2981,0.5814 1.2981,1.2982z" clip-rule="evenodd" fill-rule="evenodd"/>
</svg>